# xmcd
#
# Track frame offsets:
#	150
#	16912
#	32217
#	47730
#	62969
#	74724
#	97202
#	110894
#	124391
#
# Disc length: 1900 seconds
#
# Revision: 1
# Processed by: cddbd v1.5.2PL0 Copyright (c) Steve Scherf et al.
# Submitted via: audiograbber 1.83.01
#
DISCID=8f076a09
DTITLE=The Blackhill Ramblers - Drillin' Rig Boogie
DYEAR=2012
DGENRE=Country
TTITLE0=Excuse Me
TTITLE1=Fool Such As I
TTITLE2=Drillin Rig Boogie
TTITLE3=Losing Side Of Me
TTITLE4=Sweet Memory
TTITLE5=All Over Now
TTITLE6=Cheating Heart
TTITLE7=Slow Downtrack  8
TTITLE8=Hi Heel Sneakers
EXTD=
EXTT0=
EXTT1=
EXTT2=
EXTT3=
EXTT4=
EXTT5=
EXTT6=
EXTT7=
EXTT8=
PLAYORDER=
